<?xml version="1.0" encoding="iso-8859-1"?>
<!-- Generator: Adobe Illustrator 19.0.0, SVG Export Plug-In . SVG Version: 6.00 Build 0)  -->
<svg version="1.1" id="Capa_1" xmlns="http://www.w3.org/2000/svg" xmlns:xlink="http://www.w3.org/1999/xlink" x="0px" y="0px"
	 viewBox="0 0 512 512" style="enable-background:new 0 0 512 512;" xml:space="preserve">
<circle style="fill:#00EED0;" cx="256" cy="256" r="256"/>
<path style="fill:#00AB94;" d="M511.083,277.622l-129.34-129.34l-78.277,18.17l-44.934-44.933L153.285,321.11l35.295,35.312L210,374
	l-72.276,42.132l94.784,94.784C240.247,511.621,248.079,512,256,512C390.101,512,500.103,408.886,511.083,277.622z"/>
<path style="fill:#913F02;" d="M268.145,133.399l-20.267,67.931l-49.916-2.064l-70.934-2.815l-13.511-16.138
	c0-46.539,37.907-84.445,84.445-84.445C227.048,95.868,252.945,110.692,268.145,133.399z"/>
<path style="fill:#6F2E01;" d="M247.878,201.33l-49.916-2.064V95.868c29.086,0,54.983,14.824,70.183,37.531L247.878,201.33z"/>
<path style="fill:#FFD400;" d="M395,180.938c0-25.896-21.017-46.914-46.914-46.914c-25.896,0-46.914,21.017-46.914,46.914
	c0,18.766,11.072,35.279,27.773,42.785l-9.007,162.948v2.815c0.376,7.506,3.753,14.262,9.195,19.328
	c5.255,4.879,12.01,7.319,18.953,7.319h1.314c7.693-0.376,14.45-3.753,19.516-9.195c5.067-5.629,7.694-12.76,7.319-20.455
	l-9.007-162.76C383.928,216.217,395,199.703,395,180.938z"/>
<path style="fill:#FDBF00;" d="M367.227,223.723l9.007,162.76c0.376,7.694-2.252,14.825-7.319,20.455
	c-5.066,5.442-11.822,8.819-19.516,9.195h-1.314V134.024c25.897,0,46.914,21.017,46.914,46.914
	C395,199.703,383.928,216.217,367.227,223.723z"/>
<path style="fill:#FFD400;" d="M282.407,180.312c0,9.571-1.689,19.14-4.879,28.148c-1.688,4.879-3.753,9.571-6.38,14.074H124.776
	c-2.626-4.504-4.691-9.195-6.38-14.074c-2.064-5.443-3.378-11.26-4.129-17.077c-0.562-3.752-0.75-7.318-0.75-11.071h9.383
	c12.948,0,23.457-10.509,23.457-23.457s10.509-23.457,23.457-23.457s23.457,10.509,23.457,23.457c0,5.254,1.689,10.133,4.691,14.074
	c4.316,5.629,11.072,9.383,18.766,9.383c12.948,0,23.457-10.509,23.457-23.457s10.509-23.457,23.457-23.457h4.504
	c3.565,5.254,6.381,10.696,8.633,16.702C280.343,159.483,282.407,169.616,282.407,180.312z"/>
<path style="fill:#FDBF00;" d="M376.234,180.938c0,15.575-12.573,28.148-28.148,28.148c-15.576,0-28.148-12.574-28.148-28.148
	c0-15.576,12.573-28.148,28.148-28.148C363.662,152.79,376.234,165.362,376.234,180.938z"/>
<g>
	<path style="fill:#FF9F00;" d="M376.234,180.938c0,15.575-12.573,28.148-28.148,28.148V152.79
		C363.662,152.79,376.234,165.362,376.234,180.938z"/>
	<path style="fill:#FF9F00;" d="M282.407,180.312c0,9.571-1.689,19.14-4.879,28.148c-1.688,4.879-3.753,9.571-6.38,14.074h-73.186
		V170.93c4.316,5.629,11.072,9.383,18.766,9.383c12.948,0,23.457-10.509,23.457-23.457s10.509-23.457,23.457-23.457h4.504
		c3.565,5.254,6.381,10.696,8.633,16.702C280.343,159.483,282.407,169.616,282.407,180.312z"/>
</g>
<polygon style="fill:#AFD5E0;" points="207.345,330.437 207.345,365.528 198.712,376.162 197.962,375.41 188.579,365.528 
	188.579,330.437 "/>
<polygon style="fill:#86B5BF;" points="197.962,330.687 207.345,330.437 207.345,365.528 198.712,376.162 197.962,375.661 "/>
<g>
	<path style="fill:#CCF5FF;" d="M107.7,208.461l18.578,37.155c3.941,7.881,6.005,16.514,6.005,25.333
		c0,36.218,27.96,66.993,62.114,68.87h3.565c16.889,0,32.84-6.381,45.224-18.015c13.136-12.573,20.455-29.462,20.455-47.664
		c0-10.884,2.627-21.581,7.319-31.339l17.264-34.34L107.7,208.461L107.7,208.461z"/>
	<polygon style="fill:#CCF5FF;" points="258.2,416.132 137.724,416.132 188.579,365.528 207.345,365.528 	"/>
</g>
<g>
	<polygon style="fill:#AFD5E0;" points="207.345,365.528 258.2,416.132 197.962,416.132 197.962,365.528 	"/>
	<path style="fill:#AFD5E0;" d="M288.224,208.461l-17.264,34.34c-4.691,9.758-7.319,20.455-7.319,31.339
		c0,18.202-7.319,35.091-20.455,47.664c-12.385,11.635-28.335,18.015-45.224,18.015V208.461H288.224z"/>
</g>
<g>
</g>
<g>
</g>
<g>
</g>
<g>
</g>
<g>
</g>
<g>
</g>
<g>
</g>
<g>
</g>
<g>
</g>
<g>
</g>
<g>
</g>
<g>
</g>
<g>
</g>
<g>
</g>
<g>
</g>
</svg>
