<?xml version="1.0" encoding="iso-8859-1"?>
<!-- Generator: Adobe Illustrator 19.0.0, SVG Export Plug-In . SVG Version: 6.00 Build 0)  -->
<svg version="1.1" id="Capa_1" xmlns="http://www.w3.org/2000/svg" xmlns:xlink="http://www.w3.org/1999/xlink" x="0px" y="0px"
	 viewBox="0 0 512 512" style="enable-background:new 0 0 512 512;" xml:space="preserve">
<circle style="fill:#B34F03;" cx="256" cy="256" r="256"/>
<path style="fill:#6F2E01;" d="M296.878,78.251L256,451l55.047,55.047c103.789-22.746,183.992-108.448,198.563-215.064
	L296.878,78.251z"/>
<path style="fill:#FF3980;" d="M313.129,118.129c0,31.535-25.594,57.129-57.129,57.129s-57.129-25.594-57.129-57.129
	S224.465,61,256,61S313.129,86.594,313.129,118.129z"/>
<path style="fill:#F30051;" d="M256,175.258V61c31.535,0,57.129,25.594,57.129,57.129S287.535,175.258,256,175.258z"/>
<path style="fill:#913F02;" d="M246.281,142.331c-13.423-10.913-30.997-15.108-48.158-11.504
	c-20.877,4.374-38.261,21.167-43.248,41.787c-3.571,14.684-1.462,29.836,5.958,42.646h98.927c5.021-8.659,7.666-18.545,7.666-28.576
	C267.426,169.411,259.716,153.243,246.281,142.331z"/>
<path style="fill:#00EED0;" d="M358.832,186.684c0,10.055-2.742,19.881-7.77,28.564h-98.718c-7.313-12.568-9.599-27.651-6.17-42.047
	c1.829-7.541,5.255-14.625,9.826-20.794c8.226-10.97,20.109-18.738,33.591-21.709c17.139-3.428,34.735,0.685,48.218,11.655
	C351.062,153.32,358.832,169.545,358.832,186.684z"/>
<path style="fill:#00CCB2;" d="M358.832,186.684c0,10.055-2.742,19.881-7.77,28.564H256v-62.842
	c8.226-10.97,20.109-18.738,33.591-21.709c17.139-3.428,34.735,0.685,48.218,11.655C351.062,153.32,358.832,169.545,358.832,186.684
	z"/>
<polygon style="fill:#FFD400;" points="322.726,296.675 256,451 208.926,341.693 227.207,309.929 256,298.504 286.849,286.392 "/>
<polygon style="fill:#FF9F00;" points="286.849,286.392 322.726,296.675 256,451 256,298.504 "/>
<path style="fill:#FED2A4;" d="M147.226,198.109l61.7,143.584L256,323.184l66.726-26.509l42.047-98.566L147.226,198.109
	L147.226,198.109z"/>
<polygon style="fill:#FFBD86;" points="364.774,198.109 322.726,296.675 256,323.184 256,198.109 "/>
<g>
</g>
<g>
</g>
<g>
</g>
<g>
</g>
<g>
</g>
<g>
</g>
<g>
</g>
<g>
</g>
<g>
</g>
<g>
</g>
<g>
</g>
<g>
</g>
<g>
</g>
<g>
</g>
<g>
</g>
</svg>
